<svg xmlns="http://www.w3.org/2000/svg" viewBox="0 0 435 161.08"><title>allcall</title><line x1="307.97" y1="63.57" x2="310.17" y2="62.38" style="fill:none;stroke:#19abff;stroke-linecap:square;stroke-miterlimit:10;stroke-width:3px"/><line x1="318.22" y1="58.02" x2="374.53" y2="27.55" style="fill:none;stroke:#19abff;stroke-linecap:square;stroke-miterlimit:10;stroke-width:3px;stroke-dasharray:4.574005603790283,9.148011207580566"/><line x1="378.56" y1="25.37" x2="380.76" y2="24.18" style="fill:none;stroke:#19abff;stroke-linecap:square;stroke-miterlimit:10;stroke-width:3px"/><polygon points="382.42 31.95 390.41 18.95 375.16 18.53 382.42 31.95" style="fill:#19abff"/><line x1="309.91" y1="81.03" x2="312.41" y2="81.03" style="fill:none;stroke:#19abff;stroke-linecap:square;stroke-miterlimit:10;stroke-width:3px"/><line x1="321.63" y1="81.03" x2="372.32" y2="81.03" style="fill:none;stroke:#19abff;stroke-linecap:square;stroke-miterlimit:10;stroke-width:3px;stroke-dasharray:4.6085968017578125,9.217193603515625"/><line x1="376.93" y1="81.03" x2="379.43" y2="81.03" style="fill:none;stroke:#19abff;stroke-linecap:square;stroke-miterlimit:10;stroke-width:3px"/><polygon points="377.2 88.65 390.41 81.03 377.2 73.4 377.2 88.65" style="fill:#19abff"/><line x1="307.97" y1="97.51" x2="310.17" y2="98.7" style="fill:none;stroke:#19abff;stroke-linecap:square;stroke-miterlimit:10;stroke-width:3px"/><line x1="318.22" y1="103.06" x2="374.53" y2="133.53" style="fill:none;stroke:#19abff;stroke-linecap:square;stroke-miterlimit:10;stroke-width:3px;stroke-dasharray:4.574005603790283,9.148011207580566"/><line x1="378.56" y1="135.71" x2="380.76" y2="136.9" style="fill:none;stroke:#19abff;stroke-linecap:square;stroke-miterlimit:10;stroke-width:3px"/><polygon points="375.16 142.55 390.41 142.13 382.42 129.13 375.16 142.55" style="fill:#19abff"/><circle cx="223.54" cy="80.92" r="77.38" style="fill:#19abff"/><path d="M180.81,75.45a10.8,10.8,0,0,1,4.06,4.08,11.45,11.45,0,0,1,1.48,5.77v9.55a1.49,1.49,0,0,1-.45,1.1,1.54,1.54,0,0,1-1.14.45,1.58,1.58,0,0,1-1.14-.43,1.47,1.47,0,0,1-.45-1.12V92.42a10.06,10.06,0,0,1-3.62,3.07,10.5,10.5,0,0,1-4.84,1.12,10.71,10.71,0,0,1-9.53-5.55,11.58,11.58,0,0,1-1.44-5.75,11.44,11.44,0,0,1,1.48-5.77,10.8,10.8,0,0,1,4.06-4.08,11.89,11.89,0,0,1,11.5,0Zm-1.56,17.21a7.91,7.91,0,0,0,2.95-3,9.23,9.23,0,0,0,0-8.66,8.19,8.19,0,0,0-14.3,0,9.23,9.23,0,0,0,0,8.66,7.86,7.86,0,0,0,3,3,8.22,8.22,0,0,0,4.21,1.1A8.12,8.12,0,0,0,179.24,92.66Z" style="fill:#f2f2f2"/><path d="M193.2,94.43a7.89,7.89,0,0,1-1.56-5.06V66.21a1.47,1.47,0,0,1,.45-1.12,1.53,1.53,0,0,1,1.1-.43,1.46,1.46,0,0,1,1.54,1.54V89.37a5.15,5.15,0,0,0,.71,2.85,2.1,2.1,0,0,0,1.81,1.1h1a1.22,1.22,0,0,1,1,.43,1.66,1.66,0,0,1,.37,1.12,1.39,1.39,0,0,1-.51,1.12,2,2,0,0,1-1.32.43h-.53A4.93,4.93,0,0,1,193.2,94.43Z" style="fill:#f2f2f2"/><path d="M204.66,94.43a7.89,7.89,0,0,1-1.56-5.06V66.21a1.47,1.47,0,0,1,.45-1.12,1.53,1.53,0,0,1,1.1-.43,1.46,1.46,0,0,1,1.54,1.54V89.37a5.15,5.15,0,0,0,.71,2.85,2.1,2.1,0,0,0,1.81,1.1h1a1.22,1.22,0,0,1,1,.43,1.66,1.66,0,0,1,.37,1.12,1.39,1.39,0,0,1-.51,1.12,2,2,0,0,1-1.32.43h-.53A4.93,4.93,0,0,1,204.66,94.43Z" style="fill:#f2f2f2"/><path d="M218.86,95.12a10.66,10.66,0,0,1-4-4.06,11.58,11.58,0,0,1-1.44-5.75,12.16,12.16,0,0,1,1.38-5.83,10.27,10.27,0,0,1,3.82-4A10.45,10.45,0,0,1,224.14,74a10.13,10.13,0,0,1,8.25,3.9,1.24,1.24,0,0,1,.33.85,1.39,1.39,0,0,1-.69,1.14,1.37,1.37,0,0,1-.77.24,1.63,1.63,0,0,1-1.18-.61,8.32,8.32,0,0,0-2.68-2,7.71,7.71,0,0,0-3.25-.67,7.43,7.43,0,0,0-4,1.08,7.16,7.16,0,0,0-2.7,3,9.85,9.85,0,0,0-1,4.39,9.14,9.14,0,0,0,1,4.33,7.56,7.56,0,0,0,2.84,3,8,8,0,0,0,4.19,1.1A7.66,7.66,0,0,0,229.79,92a1.68,1.68,0,0,1,1.1-.45,1.4,1.4,0,0,1,.89.32,1.43,1.43,0,0,1,.57,1.1,1.16,1.16,0,0,1-.41.89,10.44,10.44,0,0,1-7.4,2.72A11,11,0,0,1,218.86,95.12Z" style="fill:#f2f2f2"/><path d="M254.72,75.45a10.8,10.8,0,0,1,4.06,4.08,11.45,11.45,0,0,1,1.48,5.77v9.55a1.49,1.49,0,0,1-.45,1.1,1.54,1.54,0,0,1-1.14.45,1.58,1.58,0,0,1-1.14-.43,1.47,1.47,0,0,1-.45-1.12V92.42a10.07,10.07,0,0,1-3.62,3.07,10.5,10.5,0,0,1-4.84,1.12,10.71,10.71,0,0,1-9.53-5.55,11.58,11.58,0,0,1-1.44-5.75,11.44,11.44,0,0,1,1.48-5.77,10.79,10.79,0,0,1,4.06-4.08,11.89,11.89,0,0,1,11.5,0Zm-1.56,17.21a7.91,7.91,0,0,0,2.95-3,9.23,9.23,0,0,0,0-8.66,8.19,8.19,0,0,0-14.3,0,9.23,9.23,0,0,0,0,8.66,7.86,7.86,0,0,0,3,3,8.22,8.22,0,0,0,4.21,1.1A8.11,8.11,0,0,0,253.16,92.66Z" style="fill:#f2f2f2"/><path d="M267.12,94.43a7.89,7.89,0,0,1-1.56-5.06V66.21a1.47,1.47,0,0,1,.45-1.12,1.65,1.65,0,0,1,2.21,0,1.51,1.51,0,0,1,.43,1.12V89.37a5.15,5.15,0,0,0,.71,2.85,2.1,2.1,0,0,0,1.81,1.1h1a1.22,1.22,0,0,1,1,.43,1.66,1.66,0,0,1,.37,1.12A1.39,1.39,0,0,1,273,96a2,2,0,0,1-1.32.43h-.53A4.93,4.93,0,0,1,267.12,94.43Z" style="fill:#f2f2f2"/><path d="M278.58,94.43A7.89,7.89,0,0,1,277,89.37V66.21a1.47,1.47,0,0,1,.45-1.12,1.65,1.65,0,0,1,2.21,0,1.51,1.51,0,0,1,.43,1.12V89.37a5.15,5.15,0,0,0,.71,2.85,2.1,2.1,0,0,0,1.81,1.1h1a1.22,1.22,0,0,1,1,.43,1.66,1.66,0,0,1,.37,1.12,1.39,1.39,0,0,1-.51,1.12,2,2,0,0,1-1.32.43h-.53A4.93,4.93,0,0,1,278.58,94.43Z" style="fill:#f2f2f2"/><path d="M399,11.54v12h8l10,10v-32l-10,10Zm27,6a9,9,0,0,0-5-8.06v16.1A9,9,0,0,0,426,17.54ZM421,0V4.12A14,14,0,0,1,421,31v4.12A18,18,0,0,0,421,0Z" style="fill:#19abff"/><path d="M397,75.54v12h8l10,10v-32l-10,10Zm27,6a9,9,0,0,0-5-8.06v16.1A9,9,0,0,0,424,81.54ZM419,64v4.12A14,14,0,0,1,419,95v4.12A18,18,0,0,0,419,64Z" style="fill:#19abff"/><path d="M399,137.54v12h8l10,10v-32l-10,10Zm27,6a9,9,0,0,0-5-8.06v16.1A9,9,0,0,0,426,143.54ZM421,126v4.12A14,14,0,0,1,421,157v4.12A18,18,0,0,0,421,126Z" style="fill:#19abff"/><path d="M15.91,93.27H28.64a3.19,3.19,0,0,0,3.18-3.18V80.54a3.19,3.19,0,0,0-3.18-3.18V74.18a6.36,6.36,0,1,0-12.73,0v3.18a3.19,3.19,0,0,0-3.18,3.18v9.55A3.19,3.19,0,0,0,15.91,93.27Zm2.55-19.09a3.82,3.82,0,1,1,7.64,0v3.18H18.45ZM38.18,45.54H6.36A6.38,6.38,0,0,0,0,51.9v57.27a6.38,6.38,0,0,0,6.36,6.36H38.18a6.38,6.38,0,0,0,6.36-6.36V51.9A6.38,6.38,0,0,0,38.18,45.54Zm0,57.27H6.36V58.27H38.18Z" style="fill:#19abff"/><line x1="56.91" y1="81.03" x2="59.41" y2="81.03" style="fill:none;stroke:#19abff;stroke-linecap:square;stroke-miterlimit:10;stroke-width:3px"/><line x1="68.63" y1="81.03" x2="119.32" y2="81.03" style="fill:none;stroke:#19abff;stroke-linecap:square;stroke-miterlimit:10;stroke-width:3px;stroke-dasharray:4.6085968017578125,9.217193603515625"/><line x1="123.93" y1="81.03" x2="126.43" y2="81.03" style="fill:none;stroke:#19abff;stroke-linecap:square;stroke-miterlimit:10;stroke-width:3px"/><polygon points="124.2 88.65 137.41 81.03 124.2 73.4 124.2 88.65" style="fill:#19abff"/></svg>