<svg xmlns="http://www.w3.org/2000/svg" viewBox="0 0 435 161.08"><title>allcall</title><line x1="307.97" y1="63.57" x2="310.17" y2="62.38" style="fill:none;stroke:#19abff;stroke-linecap:square;stroke-miterlimit:10;stroke-width:3px"/><line x1="318.22" y1="58.02" x2="374.53" y2="27.55" style="fill:none;stroke:#19abff;stroke-linecap:square;stroke-miterlimit:10;stroke-width:3px;stroke-dasharray:4.574005603790283,9.148011207580566"/><line x1="378.56" y1="25.37" x2="380.76" y2="24.18" style="fill:none;stroke:#19abff;stroke-linecap:square;stroke-miterlimit:10;stroke-width:3px"/><polygon points="382.42 31.95 390.41 18.95 375.16 18.53 382.42 31.95" style="fill:#19abff"/><line x1="309.91" y1="81.03" x2="312.41" y2="81.03" style="fill:none;stroke:#19abff;stroke-linecap:square;stroke-miterlimit:10;stroke-width:3px"/><line x1="321.63" y1="81.03" x2="372.32" y2="81.03" style="fill:none;stroke:#19abff;stroke-linecap:square;stroke-miterlimit:10;stroke-width:3px;stroke-dasharray:4.6085968017578125,9.217193603515625"/><line x1="376.93" y1="81.03" x2="379.43" y2="81.03" style="fill:none;stroke:#19abff;stroke-linecap:square;stroke-miterlimit:10;stroke-width:3px"/><polygon points="377.2 88.65 390.41 81.03 377.2 73.4 377.2 88.65" style="fill:#19abff"/><line x1="307.97" y1="97.51" x2="310.17" y2="98.7" style="fill:none;stroke:#19abff;stroke-linecap:square;stroke-miterlimit:10;stroke-width:3px"/><line x1="318.22" y1="103.06" x2="374.53" y2="133.53" style="fill:none;stroke:#19abff;stroke-linecap:square;stroke-miterlimit:10;stroke-width:3px;stroke-dasharray:4.574005603790283,9.148011207580566"/><line x1="378.56" y1="135.71" x2="380.76" y2="136.9" style="fill:none;stroke:#19abff;stroke-linecap:square;stroke-miterlimit:10;stroke-width:3px"/><polygon points="375.16 142.55 390.41 142.13 382.42 129.13 375.16 142.55" style="fill:#19abff"/><circle cx="223.54" cy="80.92" r="77.38" style="fill:#19abff"/><text transform="translate(161.28 96.4)" style="font-size:40.63645553588867px;fill:#f2f2f2;font-family:Comfortaa-Regular, Comfortaa">al<tspan x="38.97" y="0" style="letter-spacing:-0.01798771624174861em">l</tspan><tspan x="49.7" y="0" style="letter-spacing:-0.000012015842512858125em">call</tspan></text><path d="M399,11.54v12h8l10,10v-32l-10,10Zm27,6a9,9,0,0,0-5-8.06v16.1A9,9,0,0,0,426,17.54ZM421,0V4.12A14,14,0,0,1,421,31v4.12A18,18,0,0,0,421,0Z" style="fill:#19abff"/><path d="M397,75.54v12h8l10,10v-32l-10,10Zm27,6a9,9,0,0,0-5-8.06v16.1A9,9,0,0,0,424,81.54ZM419,64v4.12A14,14,0,0,1,419,95v4.12A18,18,0,0,0,419,64Z" style="fill:#19abff"/><path d="M399,137.54v12h8l10,10v-32l-10,10Zm27,6a9,9,0,0,0-5-8.06v16.1A9,9,0,0,0,426,143.54ZM421,126v4.12A14,14,0,0,1,421,157v4.12A18,18,0,0,0,421,126Z" style="fill:#19abff"/><path d="M15.91,93.27H28.64a3.19,3.19,0,0,0,3.18-3.18V80.54a3.19,3.19,0,0,0-3.18-3.18V74.18a6.36,6.36,0,1,0-12.73,0v3.18a3.19,3.19,0,0,0-3.18,3.18v9.55A3.19,3.19,0,0,0,15.91,93.27Zm2.55-19.09a3.82,3.82,0,1,1,7.64,0v3.18H18.45ZM38.18,45.54H6.36A6.38,6.38,0,0,0,0,51.9v57.27a6.38,6.38,0,0,0,6.36,6.36H38.18a6.38,6.38,0,0,0,6.36-6.36V51.9A6.38,6.38,0,0,0,38.18,45.54Zm0,57.27H6.36V58.27H38.18Z" style="fill:#19abff"/><line x1="56.91" y1="81.03" x2="59.41" y2="81.03" style="fill:none;stroke:#19abff;stroke-linecap:square;stroke-miterlimit:10;stroke-width:3px"/><line x1="68.63" y1="81.03" x2="119.32" y2="81.03" style="fill:none;stroke:#19abff;stroke-linecap:square;stroke-miterlimit:10;stroke-width:3px;stroke-dasharray:4.6085968017578125,9.217193603515625"/><line x1="123.93" y1="81.03" x2="126.43" y2="81.03" style="fill:none;stroke:#19abff;stroke-linecap:square;stroke-miterlimit:10;stroke-width:3px"/><polygon points="124.2 88.65 137.41 81.03 124.2 73.4 124.2 88.65" style="fill:#19abff"/></svg>